<?xml version="1.0" encoding="utf-8"?>
<!-- Generator: Adobe Illustrator 24.2.0, SVG Export Plug-In . SVG Version: 6.00 Build 0)  -->
<svg version="1.1" id="Layer_1" xmlns="http://www.w3.org/2000/svg" xmlns:xlink="http://www.w3.org/1999/xlink" x="0px" y="0px"
	 viewBox="0 0 169.8 167.1" style="enable-background:new 0 0 169.8 167.1;" xml:space="preserve">
<style type="text/css">
	.st0{fill:#3F0C0F;}
	.st1{fill:#F16D6F;}
	.st2{fill:#BBBBBB;stroke:#BBBDBF;stroke-linejoin:round;}
	.st3{fill:#8E8C8C;}
	.st4{fill:none;stroke:#EF919D;stroke-linecap:round;stroke-linejoin:round;}
	.st5{opacity:0.32;enable-background:new    ;}
	.st6{enable-background:new    ;}
	.st7{fill:#C52728;}
	.st8{opacity:0.18;fill:none;stroke:#FFFFFF;stroke-width:3;stroke-linecap:round;stroke-miterlimit:10;enable-background:new    ;}
</style>
<circle class="st0" cx="73.3" cy="75.1" r="67.3"/>
<circle class="st1" cx="74.5" cy="68.7" r="67.3"/>
<polygon class="st0" points="156.6,100.8 127.9,99.6 129,70.8 95.1,69.5 93.9,98.2 65.2,97.1 63.9,131.2 92.5,132.3 91.3,161.1 
	125.4,162.5 126.5,133.7 155.2,134.8 "/>
<polygon class="st2" points="164.3,100.5 135,99.3 136.1,70 101.3,68.5 100.1,97.9 70.8,96.7 69.4,131.6 98.7,132.7 97.5,162.1 
	132.4,163.5 133.6,134.1 162.8,135.3 "/>
<polygon class="st3" points="109.1,86 126.9,86.4 118.3,74.2 "/>
<polygon class="st3" points="87.1,122.4 87.5,104.8 75.3,113.4 "/>
<polygon class="st3" points="147.3,108.2 147,125.9 159.2,117.3 "/>
<polygon class="st3" points="125.6,146.5 108,145.5 116.2,158 "/>
<circle class="st3" cx="117.3" cy="114.6" r="6.4"/>
<path class="st4" d="M112.1,23.8"/>
<g class="st5">
	<path d="M88.4,78.9c-0.3,3.7-1.5,6.2-3.5,7.5c-2.1,1.3-5.5,1.7-10.4,1.4l-13-1l3.2-42.3l13.2,1c4.1,0.3,7.1,1.4,8.9,3.3
		c1.9,1.9,2.6,4.7,2.4,8.4c-0.2,3-0.7,5-1.3,6c-0.8,1.1-2.5,1.9-5.2,2.3c2.6,0.8,4.3,1.9,5.1,3.3c0.8,1.4,1.1,3.5,0.9,6.2L88.4,78.9
		z M77.3,76.8l0.3-4c0.1-1.8,0-2.9-0.3-3.3c-0.3-0.4-1.3-0.7-3.1-0.8l-0.9,11.7c1.5,0.1,2.6,0,3-0.4C76.8,79.5,77.1,78.5,77.3,76.8z
		 M78.8,56.9c0.1-1.8,0-3-0.4-3.4c-0.4-0.4-1.4-0.7-2.9-0.8L74.7,62c0.5,0,0.9,0.1,1.1,0.1c1.1,0.1,1.8-0.1,2.2-0.7
		C78.3,60.8,78.6,59.3,78.8,56.9z"/>
</g>
<g class="st6">
	<path class="st7" d="M88.4,81.2c-0.3,3.9-1.5,6.5-3.6,7.9c-2.1,1.3-5.6,1.8-10.4,1.5l-13-1l3.4-44.1l13.3,1
		c4.1,0.3,7.1,1.5,8.9,3.4c1.9,2,2.6,4.9,2.3,8.7c-0.2,3.2-0.7,5.2-1.4,6.2c-0.8,1.2-2.6,2-5.2,2.4c2.6,0.8,4.3,2,5.1,3.5
		c0.8,1.5,1.1,3.6,0.9,6.5L88.4,81.2z M77.2,79l0.3-4.2c0.1-1.9,0.1-3-0.3-3.5c-0.3-0.4-1.3-0.7-3.1-0.8l-0.9,12.2
		c1.5,0.1,2.6,0,3-0.4C76.7,81.9,77,80.8,77.2,79z M78.7,58.3c0.1-1.9,0-3.1-0.4-3.6c-0.4-0.5-1.4-0.8-2.9-0.9l-0.7,9.7
		c0.5,0,0.9,0.1,1.1,0.1c1.1,0.1,1.9-0.2,2.2-0.7C78.3,62.4,78.5,60.8,78.7,58.3z"/>
</g>
<path class="st8" d="M60.4,10.6c-14.9,2-27.9,11.2-34.4,24.7"/>
</svg>
