<?xml version="1.0" encoding="utf-8"?>
<!-- Generator: Adobe Illustrator 24.2.0, SVG Export Plug-In . SVG Version: 6.00 Build 0)  -->
<svg version="1.1" id="Layer_1" xmlns="http://www.w3.org/2000/svg" xmlns:xlink="http://www.w3.org/1999/xlink" x="0px" y="0px"
	 viewBox="0 0 169.8 167.1" style="enable-background:new 0 0 169.8 167.1;" xml:space="preserve">
<style type="text/css">
	.st0{fill:#3F0C0F;}
	.st1{fill:#F16D6F;}
	.st2{fill:#BBBBBB;stroke:#BBBDBF;stroke-linejoin:round;}
	.st3{fill:#8E8C8C;}
	.st4{fill:none;stroke:#EF919D;stroke-linecap:round;stroke-linejoin:round;}
	.st5{opacity:0.32;enable-background:new    ;}
	.st6{font-family:'JCHEadA';}
	.st7{font-size:63.0675px;}
	.st8{fill:#C52728;}
	.st9{font-size:65.8477px;}
	
		.st10{opacity:0.18;fill:none;stroke:#FFFFFF;stroke-width:3;stroke-linecap:round;stroke-miterlimit:10;enable-background:new    ;}
</style>
<circle class="st0" cx="73.3" cy="75.1" r="67.3"/>
<circle class="st1" cx="74.5" cy="68.7" r="67.3"/>
<polygon class="st0" points="156.6,100.8 127.9,99.6 129,70.8 95.1,69.5 93.9,98.2 65.2,97.1 63.9,131.2 92.5,132.3 91.3,161.1 
	125.4,162.5 126.5,133.7 155.2,134.8 "/>
<polygon class="st2" points="164.3,100.5 135,99.3 136.1,70 101.3,68.5 100.1,97.9 70.8,96.7 69.4,131.6 98.7,132.7 97.5,162.1 
	132.4,163.5 133.6,134.1 162.8,135.3 "/>
<polygon class="st3" points="109.1,86 126.9,86.4 118.3,74.2 "/>
<polygon class="st3" points="87.1,122.4 87.5,104.8 75.3,113.4 "/>
<polygon class="st3" points="147.3,108.2 147,125.9 159.2,117.3 "/>
<polygon class="st3" points="125.6,146.5 108,145.5 116.2,158 "/>
<circle class="st3" cx="117.3" cy="114.6" r="6.4"/>
<path class="st4" d="M112.1,23.8"/>
<text transform="matrix(1.0171 7.736272e-02 -7.585496e-02 0.9971 59.6956 86.6588)" class="st5 st6 st7">B</text>
<text transform="matrix(0.9772 7.434323e-02 -7.585496e-02 0.9971 59.4884 89.3833)" class="st8 st6 st9">B</text>
<path class="st10" d="M60.4,10.6c-14.9,2-27.9,11.2-34.4,24.7"/>
</svg>
